<svg width="250" height="250" viewBox="0 0 250 250" fill="none" xmlns="http://www.w3.org/2000/svg">
<g clip-path="url(#clip0_74_2931)">
<path d="M125 229.167C182.53 229.167 229.167 182.53 229.167 125C229.167 67.4703 182.53 20.8333 125 20.8333C67.4702 20.8333 20.8333 67.4703 20.8333 125C20.8333 182.53 67.4702 229.167 125 229.167Z" fill="url(#paint0_linear_74_2931)"/>
<g filter="url(#filter0_f_74_2931)">
<path d="M125 201.087C167.022 201.087 201.087 167.022 201.087 125C201.087 82.9784 167.022 48.9131 125 48.9131C82.9784 48.9131 48.9131 82.9784 48.9131 125C48.9131 167.022 82.9784 201.087 125 201.087Z" fill="url(#paint1_linear_74_2931)"/>
</g>
<path fill-rule="evenodd" clip-rule="evenodd" d="M75.2684 46.7211C77.0112 46.7211 78.424 45.3083 78.424 43.5656C78.424 41.8229 77.0112 40.4101 75.2684 40.4101C73.5258 40.4101 72.113 41.8229 72.113 43.5656C72.113 45.3083 73.5258 46.7211 75.2684 46.7211ZM75.2684 49.0877C78.3183 49.0877 80.7906 46.6154 80.7906 43.5656C80.7906 40.5158 78.3183 38.0435 75.2684 38.0435C72.2187 38.0435 69.7463 40.5158 69.7463 43.5656C69.7463 46.6154 72.2187 49.0877 75.2684 49.0877Z" fill="white"/>
<path fill-rule="evenodd" clip-rule="evenodd" d="M46.2831 179.873C48.0258 179.873 49.4386 178.46 49.4386 176.717C49.4386 174.975 48.0258 173.562 46.2831 173.562C44.5404 173.562 43.1277 174.975 43.1277 176.717C43.1277 178.46 44.5404 179.873 46.2831 179.873ZM46.2831 182.24C49.3329 182.24 51.8053 179.767 51.8053 176.717C51.8053 173.667 49.3329 171.196 46.2831 171.196C43.2334 171.196 40.761 173.667 40.761 176.717C40.761 179.767 43.2334 182.24 46.2831 182.24Z" fill="white"/>
<path fill-rule="evenodd" clip-rule="evenodd" d="M204.797 91.105C206.54 91.105 207.953 89.6923 207.953 87.9496C207.953 86.2069 206.54 84.7942 204.797 84.7942C203.054 84.7942 201.642 86.2069 201.642 87.9496C201.642 89.6923 203.054 91.105 204.797 91.105ZM204.797 93.4719C207.847 93.4719 210.32 90.999 210.32 87.9496C210.32 84.8999 207.847 82.4275 204.797 82.4275C201.747 82.4275 199.275 84.8999 199.275 87.9496C199.275 90.999 201.747 93.4719 204.797 93.4719Z" fill="white"/>
<path d="M39.3035 47.2724C39.5356 46.3109 40.9033 46.3109 41.1353 47.2724L41.9165 50.5084C41.9995 50.852 42.2678 51.1203 42.6113 51.2033L45.8474 51.9844C46.8089 52.2165 46.8089 53.5842 45.8474 53.8162L42.6113 54.5974C42.2678 54.6804 41.9995 54.9486 41.9165 55.2922L41.1353 58.5283C40.9033 59.4898 39.5356 59.4898 39.3035 58.5283L38.5224 55.2922C38.4394 54.9486 38.1712 54.6804 37.8275 54.5974L34.5915 53.8162C33.63 53.5842 33.63 52.2165 34.5915 51.9844L37.8275 51.2033C38.1712 51.1203 38.4394 50.852 38.5224 50.5084L39.3035 47.2724Z" fill="white"/>
<path d="M207.694 46.7313C207.948 45.6774 209.447 45.6774 209.701 46.7313L210.558 50.2784C210.649 50.6551 210.943 50.9492 211.319 51.0401L214.866 51.8964C215.92 52.1507 215.92 53.6498 214.866 53.9043L211.319 54.7605C210.943 54.8514 210.649 55.1455 210.558 55.5221L209.701 59.0693C209.447 60.1232 207.948 60.1232 207.694 59.0693L206.837 55.5221C206.746 55.1455 206.452 54.8514 206.075 54.7605L202.528 53.9043C201.475 53.6498 201.475 52.1507 202.528 51.8964L206.075 51.0401C206.452 50.9492 206.746 50.6551 206.837 50.2784L207.694 46.7313Z" fill="url(#paint2_linear_74_2931)"/>
<path d="M49.8469 200.396C51.0461 200.204 52.0036 201.381 51.5702 202.516L48.6454 210.175C48.2121 211.31 46.713 211.55 45.9471 210.607L40.7769 204.244C40.0108 203.302 40.5525 201.884 41.7518 201.692L49.8469 200.396Z" fill="url(#paint3_linear_74_2931)"/>
<path d="M193.821 179.354C193.521 178.177 194.607 177.117 195.776 177.445L203.669 179.663C204.838 179.992 205.214 181.463 204.344 182.311L198.477 188.037C197.608 188.886 196.147 188.475 195.846 187.298L193.821 179.354Z" fill="url(#paint4_linear_74_2931)"/>
<path d="M165.316 139.37L94.9836 113.77C89.5922 111.808 83.631 114.588 81.6688 119.979L65.0658 165.595C63.1036 170.986 65.8833 176.948 71.2745 178.91L141.608 204.509C146.999 206.471 152.96 203.691 154.922 198.3L171.525 152.684C173.487 147.293 170.707 141.332 165.316 139.37Z" fill="url(#paint5_linear_74_2931)"/>
<path d="M162.461 153.498L183.237 123.572C186.509 118.859 185.342 112.386 180.629 109.114L150.702 88.3377C145.989 85.0658 139.516 86.234 136.245 90.9466L115.468 120.873C112.197 125.586 113.364 132.059 118.077 135.331L148.004 156.107C152.717 159.379 159.189 158.21 162.461 153.498Z" fill="url(#paint6_linear_74_2931)"/>
<path d="M138.808 129.681C137.537 131.433 135.095 131.821 133.343 130.549C131.592 129.278 131.205 126.836 132.476 125.084C133.747 123.332 136.189 122.945 137.941 124.217C139.692 125.488 140.08 127.93 138.808 129.681Z" fill="url(#paint7_linear_74_2931)"/>
<path d="M150.37 113.727L147.952 111.974L136.408 127.893L138.825 129.647L150.37 113.727Z" fill="url(#paint8_linear_74_2931)"/>
<path d="M152.393 132.506C151.121 134.258 148.679 134.646 146.929 133.374C145.177 132.103 144.789 129.661 146.061 127.909C147.332 126.158 149.774 125.77 151.525 127.042C153.277 128.313 153.665 130.755 152.393 132.506Z" fill="url(#paint9_linear_74_2931)"/>
<path d="M163.977 116.543L161.56 114.791L150.017 130.712L152.436 132.465L163.977 116.543Z" fill="url(#paint10_linear_74_2931)"/>
<path d="M163.947 116.584L146.416 114.102L147.956 111.971L165.484 114.461L163.947 116.584Z" fill="url(#paint11_linear_74_2931)"/>
<path d="M161.036 120.595L143.505 118.113L145.044 115.982L162.581 118.475L161.036 120.595Z" fill="url(#paint12_linear_74_2931)"/>
<path d="M147.076 87.2558L140.992 59.0675C139.782 53.4594 134.254 49.8944 128.646 51.1049L91.7854 59.0609C86.1776 60.2713 82.6127 65.7988 83.8232 71.4069L89.9074 99.5952C91.1178 105.203 96.645 108.768 102.254 107.558L139.113 99.6016C144.722 98.3914 148.286 92.8642 147.076 87.2558Z" fill="url(#paint13_linear_74_2931)"/>
<path d="M146.596 84.3584L125.934 67.7686L117.946 83.517L109.531 78.6657L97.8968 94.8606L89.1704 96.741L89.5859 98.6939C90.9883 105.177 97.3768 109.301 103.86 107.898L137.797 100.574C144.28 99.1722 148.404 92.7836 147.001 86.3011L146.586 84.3584H146.596Z" fill="url(#paint14_linear_74_2931)"/>
<path opacity="0.9" d="M97.6885 76.7851C100.919 76.7019 103.007 73.4608 101.75 70.4898C101.044 68.8278 99.3506 67.737 97.5427 67.7785C94.3126 67.8616 92.2238 71.1028 93.4811 74.0738C94.1876 75.7358 95.8805 76.8266 97.6885 76.7851Z" fill="white"/>
<path d="M153.834 196.629C152.397 202.673 146.012 206.112 140.175 203.987L69.973 178.436C65.017 176.632 62.1993 171.401 63.4198 166.27L73.389 124.364C74.8266 118.321 81.2111 114.881 87.0481 117.006L157.25 142.558C162.206 144.361 165.024 149.592 163.804 154.724L153.834 196.629Z" fill="url(#paint15_linear_74_2931)"/>
</g>
<defs>
<filter id="filter0_f_74_2931" x="-5.08691" y="-5.08691" width="260.174" height="260.174" filterUnits="userSpaceOnUse" color-interpolation-filters="sRGB">
<feFlood flood-opacity="0" result="BackgroundImageFix"/>
<feBlend mode="normal" in="SourceGraphic" in2="BackgroundImageFix" result="shape"/>
<feGaussianBlur stdDeviation="27" result="effect1_foregroundBlur_74_2931"/>
</filter>
<linearGradient id="paint0_linear_74_2931" x1="49.8943" y1="20.8333" x2="208.898" y2="53.932" gradientUnits="userSpaceOnUse">
<stop stop-color="#A259FF"/>
<stop offset="1" stop-color="#3B3B3B"/>
</linearGradient>
<linearGradient id="paint1_linear_74_2931" x1="212.862" y1="137.681" x2="156.245" y2="235.275" gradientUnits="userSpaceOnUse">
<stop stop-color="#A259FF" stop-opacity="0"/>
<stop offset="1" stop-color="#FF6250"/>
</linearGradient>
<linearGradient id="paint2_linear_74_2931" x1="211.673" y1="49.034" x2="225.015" y2="59.5137" gradientUnits="userSpaceOnUse">
<stop stop-color="#A259FF"/>
<stop offset="1" stop-color="#377DF7"/>
</linearGradient>
<linearGradient id="paint3_linear_74_2931" x1="51.0836" y1="204.28" x2="50.6379" y2="217.555" gradientUnits="userSpaceOnUse">
<stop stop-color="#A259FF"/>
<stop offset="1" stop-color="#377DF7"/>
</linearGradient>
<linearGradient id="paint4_linear_74_2931" x1="197.577" y1="177.77" x2="210.838" y2="177.009" gradientUnits="userSpaceOnUse">
<stop stop-color="#A259FF"/>
<stop offset="1" stop-color="#377DF7"/>
</linearGradient>
<linearGradient id="paint5_linear_74_2931" x1="144.092" y1="148.037" x2="182.892" y2="240.768" gradientUnits="userSpaceOnUse">
<stop stop-color="#A259FF"/>
<stop offset="0.416667" stop-color="#A259FF" stop-opacity="0"/>
</linearGradient>
<linearGradient id="paint6_linear_74_2931" x1="155.431" y1="141.332" x2="88.777" y2="161.814" gradientUnits="userSpaceOnUse">
<stop stop-color="#FF7262"/>
<stop offset="0.317708" stop-color="#A259FF"/>
</linearGradient>
<linearGradient id="paint7_linear_74_2931" x1="144.953" y1="111.553" x2="152.341" y2="127.113" gradientUnits="userSpaceOnUse">
<stop stop-color="#3B3B3B"/>
<stop offset="1" stop-color="#A259FF"/>
</linearGradient>
<linearGradient id="paint8_linear_74_2931" x1="171.051" y1="84.8332" x2="177.564" y2="91.2273" gradientUnits="userSpaceOnUse">
<stop stop-color="#3B3B3B"/>
<stop offset="1" stop-color="#A259FF"/>
</linearGradient>
<linearGradient id="paint9_linear_74_2931" x1="158.538" y1="114.379" x2="165.925" y2="129.938" gradientUnits="userSpaceOnUse">
<stop stop-color="#3B3B3B"/>
<stop offset="1" stop-color="#A259FF"/>
</linearGradient>
<linearGradient id="paint10_linear_74_2931" x1="184.654" y1="87.6457" x2="191.168" y2="94.0389" gradientUnits="userSpaceOnUse">
<stop stop-color="#3B3B3B"/>
<stop offset="1" stop-color="#A259FF"/>
</linearGradient>
<linearGradient id="paint11_linear_74_2931" x1="168.053" y1="103.503" x2="167.786" y2="121.807" gradientUnits="userSpaceOnUse">
<stop stop-color="#3B3B3B"/>
<stop offset="1" stop-color="#A259FF"/>
</linearGradient>
<linearGradient id="paint12_linear_74_2931" x1="165.149" y1="107.516" x2="164.881" y2="125.821" gradientUnits="userSpaceOnUse">
<stop stop-color="#3B3B3B"/>
<stop offset="1" stop-color="#A259FF"/>
</linearGradient>
<linearGradient id="paint13_linear_74_2931" x1="123.704" y1="58.7819" x2="135.467" y2="97.2284" gradientUnits="userSpaceOnUse">
<stop stop-color="#FF7262"/>
<stop offset="1" stop-color="#A259FF"/>
</linearGradient>
<linearGradient id="paint14_linear_74_2931" x1="115.393" y1="123.189" x2="102.616" y2="75.9934" gradientUnits="userSpaceOnUse">
<stop stop-color="#A259FF"/>
<stop offset="1" stop-color="white"/>
</linearGradient>
<linearGradient id="paint15_linear_74_2931" x1="137.015" y1="183.7" x2="88.1552" y2="59.3852" gradientUnits="userSpaceOnUse">
<stop stop-color="#A259FF"/>
<stop offset="0.666667" stop-color="white"/>
</linearGradient>
<clipPath id="clip0_74_2931">
<rect width="250" height="250" fill="white"/>
</clipPath>
</defs>
</svg>
