<svg width="250" height="250" viewBox="0 0 250 250" fill="none" xmlns="http://www.w3.org/2000/svg">
<g clip-path="url(#clip0_74_2958)">
<path d="M125 229.167C182.53 229.167 229.167 182.53 229.167 125C229.167 67.4703 182.53 20.8333 125 20.8333C67.4702 20.8333 20.8333 67.4703 20.8333 125C20.8333 182.53 67.4702 229.167 125 229.167Z" fill="url(#paint0_linear_74_2958)"/>
<g filter="url(#filter0_f_74_2958)">
<path d="M131.341 201.087C169.861 201.087 201.087 169.861 201.087 131.341C201.087 92.8208 169.861 61.5942 131.341 61.5942C92.8208 61.5942 61.5942 92.8208 61.5942 131.341C61.5942 169.861 92.8208 201.087 131.341 201.087Z" fill="url(#paint1_linear_74_2958)"/>
</g>
<path fill-rule="evenodd" clip-rule="evenodd" d="M56.2467 82.0473C57.9895 82.0473 59.4022 80.6345 59.4022 78.8917C59.4022 77.1491 57.9895 75.7363 56.2467 75.7363C54.504 75.7363 53.0913 77.1491 53.0913 78.8917C53.0913 80.6345 54.504 82.0473 56.2467 82.0473ZM56.2467 84.4139C59.2965 84.4139 61.7689 81.9415 61.7689 78.8917C61.7689 75.842 59.2965 73.3696 56.2467 73.3696C53.197 73.3696 50.7246 75.842 50.7246 78.8917C50.7246 81.9415 53.197 84.4139 56.2467 84.4139Z" fill="white"/>
<path fill-rule="evenodd" clip-rule="evenodd" d="M46.2831 179.873C48.0258 179.873 49.4386 178.46 49.4386 176.717C49.4386 174.975 48.0258 173.562 46.2831 173.562C44.5404 173.562 43.1277 174.975 43.1277 176.717C43.1277 178.46 44.5404 179.873 46.2831 179.873ZM46.2831 182.24C49.3329 182.24 51.8053 179.767 51.8053 176.717C51.8053 173.667 49.3329 171.196 46.2831 171.196C43.2334 171.196 40.761 173.667 40.761 176.717C40.761 179.767 43.2334 182.24 46.2831 182.24Z" fill="white"/>
<path fill-rule="evenodd" clip-rule="evenodd" d="M193.022 46.7211C194.764 46.7211 196.178 45.3083 196.178 43.5656C196.178 41.8229 194.764 40.4101 193.022 40.4101C191.279 40.4101 189.867 41.8229 189.867 43.5656C189.867 45.3083 191.279 46.7211 193.022 46.7211ZM193.022 49.0877C196.072 49.0877 198.544 46.6154 198.544 43.5656C198.544 40.5158 196.072 38.0435 193.022 38.0435C189.972 38.0435 187.5 40.5158 187.5 43.5656C187.5 46.6154 189.972 49.0877 193.022 49.0877Z" fill="white"/>
<path d="M59.2308 38.2143C59.4628 37.2528 60.8305 37.2528 61.0626 38.2143L61.8437 41.4503C61.9267 41.7939 62.1949 42.0622 62.5386 42.1452L65.7746 42.9263C66.7361 43.1584 66.7361 44.5261 65.7746 44.7581L62.5386 45.5393C62.1949 45.6223 61.9267 45.8905 61.8437 46.2341L61.0626 49.4702C60.8305 50.4317 59.4628 50.4317 59.2308 49.4702L58.4496 46.2341C58.3666 45.8905 58.0984 45.6223 57.7548 45.5393L54.5187 44.7581C53.5572 44.5261 53.5572 43.1584 54.5187 42.9263L57.7548 42.1452C58.0984 42.0622 58.3666 41.7939 58.4496 41.4503L59.2308 38.2143Z" fill="white"/>
<path d="M204.976 71.1879C205.23 70.134 206.729 70.134 206.984 71.1879L207.84 74.735C207.931 75.1116 208.225 75.4057 208.601 75.4967L212.148 76.3529C213.203 76.6073 213.203 78.1064 212.148 78.3608L208.601 79.217C208.225 79.308 207.931 79.602 207.84 79.9786L206.984 83.5258C206.729 84.5797 205.23 84.5797 204.976 83.5258L204.119 79.9786C204.029 79.602 203.735 79.308 203.358 79.217L199.811 78.3608C198.757 78.1064 198.757 76.6073 199.811 76.3529L203.358 75.4967C203.735 75.4057 204.029 75.1116 204.119 74.735L204.976 71.1879Z" fill="url(#paint2_linear_74_2958)"/>
<path d="M49.8471 200.396C51.0464 200.204 52.0038 201.382 51.5705 202.517L48.6457 210.175C48.2123 211.31 46.7132 211.55 45.9473 210.607L40.7771 204.245C40.0111 203.303 40.5527 201.885 41.752 201.693L49.8471 200.396Z" fill="url(#paint3_linear_74_2958)"/>
<path d="M191.103 182.977C190.804 181.8 191.89 180.74 193.059 181.068L200.952 183.286C202.121 183.615 202.497 185.086 201.627 185.934L195.76 191.66C194.891 192.509 193.43 192.098 193.129 190.921L191.103 182.977Z" fill="url(#paint4_linear_74_2958)"/>
<g filter="url(#filter1_f_74_2958)">
<path d="M180.277 205.132C180.277 210.721 153.765 215.251 121.063 215.251C88.3597 215.251 61.8486 210.721 61.8486 205.132C61.8486 199.543 88.3597 195.013 121.063 195.013C153.765 195.013 180.277 199.543 180.277 205.132Z" fill="url(#paint5_radial_74_2958)"/>
</g>
<g filter="url(#filter2_i_74_2958)">
<path d="M122.215 59.8649L83.6471 66.6653C80.5488 67.2117 78.4799 70.1663 79.0262 73.2647L88.7464 128.391C89.2927 131.489 92.2474 133.558 95.3458 133.011L133.913 126.211C137.012 125.665 139.081 122.71 138.534 119.612L128.814 64.4858C128.267 61.3874 125.313 59.3185 122.215 59.8649Z" fill="url(#paint6_linear_74_2958)"/>
</g>
<path d="M122.773 88.2021L92.8129 93.4849C91.804 93.6628 91.1304 94.6248 91.3083 95.6337L91.3094 95.6396C91.4873 96.6485 92.4493 97.3221 93.4581 97.1442L123.419 91.8614C124.427 91.6835 125.101 90.7215 124.923 89.7126L124.922 89.7067C124.744 88.6978 123.782 88.0242 122.773 88.2021Z" fill="url(#paint7_linear_74_2958)"/>
<path d="M127.33 113.947L97.628 119.185C96.6278 119.361 95.9567 120.296 96.129 121.273L96.13 121.28C96.3024 122.257 97.2529 122.906 98.2531 122.73L127.955 117.492C128.956 117.316 129.627 116.381 129.454 115.404L129.454 115.397C129.281 114.42 128.33 113.771 127.33 113.947Z" fill="url(#paint8_linear_74_2958)"/>
<path d="M124.956 100.477L95.253 105.714C94.2528 105.891 93.5817 106.826 93.754 107.803L93.755 107.809C93.9273 108.787 94.8779 109.436 95.878 109.259L125.581 104.022C126.581 103.846 127.252 102.91 127.08 101.933L127.079 101.927C126.906 100.95 125.956 100.301 124.956 100.477Z" fill="url(#paint9_linear_74_2958)"/>
<path d="M100.406 72.4884L91.6508 74.0321C89.7114 74.3741 88.4164 76.2235 88.7584 78.1628L89.1868 80.5925C89.5288 82.5318 91.3781 83.8268 93.3175 83.4848L102.073 81.9411C104.012 81.5991 105.307 79.7498 104.965 77.8104L104.536 75.3807C104.195 73.4413 102.345 72.1464 100.406 72.4884Z" fill="#A259FF"/>
<g filter="url(#filter3_i_74_2958)">
<path d="M168.178 75.0662H117.15C114.773 75.0662 112.845 76.9938 112.845 79.3716V103.356C112.845 105.734 114.773 107.661 117.15 107.661H168.178C170.555 107.661 172.483 105.734 172.483 103.356V79.3716C172.483 76.9938 170.555 75.0662 168.178 75.0662Z" fill="url(#paint10_linear_74_2958)"/>
</g>
<path d="M125.439 96.3095C128.173 96.3095 130.389 94.0933 130.389 91.3596C130.389 88.6259 128.173 86.4099 125.439 86.4099C122.706 86.4099 120.49 88.6259 120.49 91.3596C120.49 94.0933 122.706 96.3095 125.439 96.3095Z" fill="white"/>
<path d="M143.128 96.3095C145.862 96.3095 148.078 94.0933 148.078 91.3596C148.078 88.6259 145.862 86.4099 143.128 86.4099C140.395 86.4099 138.178 88.6259 138.178 91.3596C138.178 94.0933 140.395 96.3095 143.128 96.3095Z" fill="white"/>
<path d="M160.817 96.3095C163.551 96.3095 165.766 94.0933 165.766 91.3596C165.766 88.6259 163.551 86.4099 160.817 86.4099C158.083 86.4099 155.867 88.6259 155.867 91.3596C155.867 94.0933 158.083 96.3095 160.817 96.3095Z" fill="white"/>
<path fill-rule="evenodd" clip-rule="evenodd" d="M116.139 161.244C116.566 158.818 118.88 157.198 121.306 157.626L146.795 162.12C150.277 162.735 153.425 164.351 155.656 166.688C157.886 169.023 159.397 172.343 158.749 176.019C158.101 179.695 155.546 182.298 152.652 183.731C149.757 185.165 146.245 185.61 142.761 184.996L82.1977 174.317C79.7715 173.889 78.1515 171.575 78.5793 169.149C79.0071 166.723 81.3207 165.103 83.7469 165.531L144.311 176.21C146.117 176.528 147.672 176.242 148.693 175.736C149.715 175.23 149.925 174.688 149.963 174.47C150.001 174.253 149.99 173.674 149.204 172.85C148.418 172.026 147.054 171.225 145.246 170.907L119.652 165.504C117.227 165.076 115.71 163.67 116.139 161.244Z" fill="url(#paint11_linear_74_2958)"/>
<path fill-rule="evenodd" clip-rule="evenodd" d="M165.37 115.83C166.329 113.771 168.551 112.613 170.788 113.007L190.77 116.531C193.498 117.012 195.321 119.613 194.84 122.342C194.358 125.071 191.756 126.892 189.028 126.411L172.839 123.556L163.275 144.084C162.106 146.596 159.121 147.683 156.609 146.514C154.099 145.343 153.011 142.359 154.181 139.848L165.37 115.83Z" fill="url(#paint12_linear_74_2958)"/>
<path d="M94.1485 192.088C100.059 193.131 105.696 189.183 106.738 183.273C107.78 177.362 103.834 171.726 97.9228 170.683C92.012 169.641 86.3754 173.588 85.3332 179.499C84.291 185.41 88.2377 191.046 94.1485 192.088Z" fill="url(#paint13_linear_74_2958)"/>
<path d="M160.761 124.9L87.0078 111.895C81.4792 110.921 76.5687 114.89 76.9539 120.016L77.8749 149.93C78.1543 153.633 81.1762 156.757 85.1691 157.46L149.458 173.135L167.447 135.986C171.592 128.462 166.303 125.877 160.761 124.9Z" fill="url(#paint14_linear_74_2958)"/>
<path d="M94.789 186.727C97.7585 187.25 100.59 185.267 101.114 182.298C101.637 179.329 99.6547 176.497 96.6851 175.973C93.7156 175.449 90.8839 177.432 90.3602 180.402C89.8366 183.372 91.8195 186.203 94.789 186.727Z" fill="url(#paint15_linear_74_2958)"/>
<mask id="mask0_74_2958" style="mask-type:alpha" maskUnits="userSpaceOnUse" x="76" y="111" width="93" height="63">
<path d="M160.761 124.9L87.0074 111.895C81.4787 110.921 76.5682 114.89 76.9534 120.016L77.8744 149.93C78.1538 153.633 81.1757 156.757 85.1686 157.46L149.458 173.135L167.447 135.986C169.564 131.287 166.303 125.877 160.761 124.9Z" fill="url(#paint16_linear_74_2958)"/>
</mask>
<g mask="url(#mask0_74_2958)">
<path d="M125.076 144.625C125.396 142.931 127.029 141.814 128.724 142.126C130.418 142.44 131.532 144.066 131.212 145.759L126.99 168.09C126.67 169.783 125.037 170.901 123.343 170.588C121.649 170.276 120.535 168.649 120.854 166.956L125.076 144.625Z" fill="#A259FF"/>
<path d="M180.173 130.102C181.588 130.347 182.54 131.694 182.301 133.11L182.127 134.135C181.887 135.551 180.545 136.499 179.13 136.254L76.0073 118.343C74.5926 118.097 73.6403 116.75 73.8803 115.335L74.0541 114.31C74.294 112.894 75.6354 111.946 77.0501 112.191L180.173 130.102Z" fill="#A259FF"/>
<path d="M142.431 147.761C142.751 146.068 144.384 144.949 146.078 145.263C147.773 145.576 148.887 147.203 148.566 148.896L144.345 171.227C144.025 172.92 142.392 174.038 140.697 173.725C139.004 173.412 137.89 171.785 138.209 170.093L142.431 147.761Z" fill="#A259FF"/>
<path d="M107.724 141.488C108.043 139.796 109.677 138.677 111.37 138.989C113.065 139.303 114.179 140.93 113.859 142.623L109.638 164.953C109.318 166.646 107.685 167.765 105.99 167.452C104.296 167.139 103.182 165.512 103.502 163.819L107.724 141.488Z" fill="#A259FF"/>
<path d="M90.1705 138.394C90.4906 136.701 92.1236 135.583 93.8179 135.895C95.5122 136.209 96.6263 137.835 96.3062 139.528L92.0848 161.859C91.7648 163.552 90.1318 164.67 88.4374 164.358C86.7431 164.045 85.629 162.418 85.9491 160.725L90.1705 138.394Z" fill="#A259FF"/>
<path d="M74.9284 112.21C75.2525 110.371 77.0055 109.143 78.8438 109.468L168.97 125.359C170.808 125.683 172.036 127.437 171.711 129.275C171.387 131.114 169.634 132.341 167.796 132.017L77.67 116.124C75.8317 115.801 74.6043 114.047 74.9284 112.21Z" fill="url(#paint17_linear_74_2958)"/>
</g>
</g>
<defs>
<filter id="filter0_f_74_2958" x="7.59424" y="7.59424" width="247.493" height="247.493" filterUnits="userSpaceOnUse" color-interpolation-filters="sRGB">
<feFlood flood-opacity="0" result="BackgroundImageFix"/>
<feBlend mode="normal" in="SourceGraphic" in2="BackgroundImageFix" result="shape"/>
<feGaussianBlur stdDeviation="27" result="effect1_foregroundBlur_74_2958"/>
</filter>
<filter id="filter1_f_74_2958" x="41.1612" y="174.326" width="159.804" height="61.6121" filterUnits="userSpaceOnUse" color-interpolation-filters="sRGB">
<feFlood flood-opacity="0" result="BackgroundImageFix"/>
<feBlend mode="normal" in="SourceGraphic" in2="BackgroundImageFix" result="shape"/>
<feGaussianBlur stdDeviation="10.3437" result="effect1_foregroundBlur_74_2958"/>
</filter>
<filter id="filter2_i_74_2958" x="78.9387" y="59.7773" width="62.0677" height="78.8855" filterUnits="userSpaceOnUse" color-interpolation-filters="sRGB">
<feFlood flood-opacity="0" result="BackgroundImageFix"/>
<feBlend mode="normal" in="SourceGraphic" in2="BackgroundImageFix" result="shape"/>
<feColorMatrix in="SourceAlpha" type="matrix" values="0 0 0 0 0 0 0 0 0 0 0 0 0 0 0 0 0 0 127 0" result="hardAlpha"/>
<feOffset dx="2.38455" dy="5.56394"/>
<feGaussianBlur stdDeviation="5.96137"/>
<feComposite in2="hardAlpha" operator="arithmetic" k2="-1" k3="1"/>
<feColorMatrix type="matrix" values="0 0 0 0 0.104618 0 0 0 0 0.465612 0 0 0 0 0.545833 0 0 0 0.15 0"/>
<feBlend mode="normal" in2="shape" result="effect1_innerShadow_74_2958"/>
</filter>
<filter id="filter3_i_74_2958" x="112.845" y="75.0662" width="65.2635" height="36.3458" filterUnits="userSpaceOnUse" color-interpolation-filters="sRGB">
<feFlood flood-opacity="0" result="BackgroundImageFix"/>
<feBlend mode="normal" in="SourceGraphic" in2="BackgroundImageFix" result="shape"/>
<feColorMatrix in="SourceAlpha" type="matrix" values="0 0 0 0 0 0 0 0 0 0 0 0 0 0 0 0 0 0 127 0" result="hardAlpha"/>
<feOffset dx="5.62585" dy="3.75056"/>
<feGaussianBlur stdDeviation="6.09467"/>
<feComposite in2="hardAlpha" operator="arithmetic" k2="-1" k3="1"/>
<feColorMatrix type="matrix" values="0 0 0 0 0.104618 0 0 0 0 0.465612 0 0 0 0 0.545833 0 0 0 0.09 0"/>
<feBlend mode="normal" in2="shape" result="effect1_innerShadow_74_2958"/>
</filter>
<linearGradient id="paint0_linear_74_2958" x1="49.8943" y1="20.8333" x2="208.898" y2="53.932" gradientUnits="userSpaceOnUse">
<stop stop-color="#A259FF"/>
<stop offset="1" stop-color="#3B3B3B"/>
</linearGradient>
<linearGradient id="paint1_linear_74_2958" x1="161.232" y1="187.802" x2="114.715" y2="182.499" gradientUnits="userSpaceOnUse">
<stop stop-color="#A259FF" stop-opacity="0"/>
<stop offset="1" stop-color="#FF6250"/>
</linearGradient>
<linearGradient id="paint2_linear_74_2958" x1="208.956" y1="73.4905" x2="222.298" y2="83.9702" gradientUnits="userSpaceOnUse">
<stop stop-color="#A259FF"/>
<stop offset="1" stop-color="#377DF7"/>
</linearGradient>
<linearGradient id="paint3_linear_74_2958" x1="51.0839" y1="204.28" x2="50.6382" y2="217.556" gradientUnits="userSpaceOnUse">
<stop stop-color="#A259FF"/>
<stop offset="1" stop-color="#377DF7"/>
</linearGradient>
<linearGradient id="paint4_linear_74_2958" x1="194.86" y1="181.393" x2="208.121" y2="180.632" gradientUnits="userSpaceOnUse">
<stop stop-color="#A259FF"/>
<stop offset="1" stop-color="#377DF7"/>
</linearGradient>
<radialGradient id="paint5_radial_74_2958" cx="0" cy="0" r="1" gradientUnits="userSpaceOnUse" gradientTransform="translate(121.063 205.132) rotate(90) scale(10.1188 59.2142)">
<stop stop-color="#2B2B2B"/>
<stop offset="1" stop-color="#2B2B2B" stop-opacity="0"/>
</radialGradient>
<linearGradient id="paint6_linear_74_2958" x1="86.0979" y1="66.2332" x2="136.257" y2="64.6874" gradientUnits="userSpaceOnUse">
<stop stop-color="#A259FF"/>
<stop offset="1" stop-color="#3B3B3B"/>
</linearGradient>
<linearGradient id="paint7_linear_74_2958" x1="118.271" y1="91.7017" x2="114.978" y2="81.942" gradientUnits="userSpaceOnUse">
<stop stop-color="#A259FF"/>
<stop offset="0.666667" stop-color="white"/>
</linearGradient>
<linearGradient id="paint8_linear_74_2958" x1="122.857" y1="117.358" x2="119.697" y2="107.886" gradientUnits="userSpaceOnUse">
<stop stop-color="#A259FF"/>
<stop offset="0.666667" stop-color="white"/>
</linearGradient>
<linearGradient id="paint9_linear_74_2958" x1="120.481" y1="103.887" x2="117.322" y2="94.4162" gradientUnits="userSpaceOnUse">
<stop stop-color="#A259FF"/>
<stop offset="0.666667" stop-color="white"/>
</linearGradient>
<linearGradient id="paint10_linear_74_2958" x1="112.845" y1="114.984" x2="149.544" y2="59.9058" gradientUnits="userSpaceOnUse">
<stop stop-color="#A259FF"/>
<stop offset="1" stop-color="#FF6250"/>
</linearGradient>
<linearGradient id="paint11_linear_74_2958" x1="141.925" y1="178.176" x2="129.344" y2="119.127" gradientUnits="userSpaceOnUse">
<stop stop-color="#A259FF"/>
<stop offset="0.666667" stop-color="white"/>
</linearGradient>
<linearGradient id="paint12_linear_74_2958" x1="183.859" y1="123.352" x2="212.899" y2="157.154" gradientUnits="userSpaceOnUse">
<stop stop-color="#A259FF"/>
<stop offset="1" stop-color="#377DF7"/>
</linearGradient>
<linearGradient id="paint13_linear_74_2958" x1="101.594" y1="187.157" x2="76.7703" y2="161.795" gradientUnits="userSpaceOnUse">
<stop stop-color="#A259FF"/>
<stop offset="0.666667" stop-color="white"/>
</linearGradient>
<linearGradient id="paint14_linear_74_2958" x1="145.222" y1="158.179" x2="95.3253" y2="58.703" gradientUnits="userSpaceOnUse">
<stop stop-color="#A259FF"/>
<stop offset="0.666667" stop-color="white"/>
</linearGradient>
<linearGradient id="paint15_linear_74_2958" x1="89.5636" y1="183.032" x2="105.056" y2="186.017" gradientUnits="userSpaceOnUse">
<stop stop-color="white"/>
<stop offset="1" stop-color="#BCF3FF"/>
</linearGradient>
<linearGradient id="paint16_linear_74_2958" x1="76.3052" y1="121.766" x2="167.649" y2="138.999" gradientUnits="userSpaceOnUse">
<stop stop-color="#AFF1FF"/>
<stop offset="1" stop-color="#65C8DE"/>
</linearGradient>
<linearGradient id="paint17_linear_74_2958" x1="151.901" y1="127.272" x2="153.386" y2="108.464" gradientUnits="userSpaceOnUse">
<stop stop-color="#A259FF"/>
<stop offset="0.666667" stop-color="white"/>
</linearGradient>
<clipPath id="clip0_74_2958">
<rect width="250" height="250" fill="white"/>
</clipPath>
</defs>
</svg>
