<svg width="250" height="250" viewBox="0 0 250 250" fill="none" xmlns="http://www.w3.org/2000/svg">
<g clip-path="url(#clip0_74_2883)">
<path d="M125 229.167C182.53 229.167 229.167 182.53 229.167 125C229.167 67.4703 182.53 20.8333 125 20.8333C67.4702 20.8333 20.8333 67.4703 20.8333 125C20.8333 182.53 67.4702 229.167 125 229.167Z" fill="url(#paint0_linear_74_2883)"/>
<g filter="url(#filter0_f_74_2883)">
<path d="M125 201.087C167.022 201.087 201.087 167.022 201.087 125C201.087 82.9784 167.022 48.9131 125 48.9131C82.9784 48.9131 48.9131 82.9784 48.9131 125C48.9131 167.022 82.9784 201.087 125 201.087Z" fill="url(#paint1_linear_74_2883)"/>
</g>
<path fill-rule="evenodd" clip-rule="evenodd" d="M117.841 40.3805C119.583 40.3805 120.996 38.9677 120.996 37.225C120.996 35.4823 119.583 34.0695 117.841 34.0695C116.098 34.0695 114.686 35.4823 114.686 37.225C114.686 38.9677 116.098 40.3805 117.841 40.3805ZM117.841 42.7472C120.89 42.7472 123.363 40.2748 123.363 37.225C123.363 34.1753 120.89 31.7029 117.841 31.7029C114.791 31.7029 112.319 34.1753 112.319 37.225C112.319 40.2748 114.791 42.7472 117.841 42.7472Z" fill="white"/>
<path fill-rule="evenodd" clip-rule="evenodd" d="M42.6598 185.308C44.4026 185.308 45.8153 183.895 45.8153 182.152C45.8153 180.409 44.4026 178.997 42.6598 178.997C40.9171 178.997 39.5044 180.409 39.5044 182.152C39.5044 183.895 40.9171 185.308 42.6598 185.308ZM42.6598 187.675C45.7096 187.675 48.182 185.202 48.182 182.152C48.182 179.102 45.7096 176.63 42.6598 176.63C39.6101 176.63 37.1377 179.102 37.1377 182.152C37.1377 185.202 39.6101 187.675 42.6598 187.675Z" fill="white"/>
<path fill-rule="evenodd" clip-rule="evenodd" d="M215.668 178.062C217.411 178.062 218.824 176.649 218.824 174.906C218.824 173.163 217.411 171.751 215.668 171.751C213.926 171.751 212.514 173.163 212.514 174.906C212.514 176.649 213.926 178.062 215.668 178.062ZM215.668 180.428C218.718 180.428 221.191 177.956 221.191 174.906C221.191 171.856 218.718 169.384 215.668 169.384C212.619 169.384 210.147 171.856 210.147 174.906C210.147 177.956 212.619 180.428 215.668 180.428Z" fill="white"/>
<path d="M66.4774 54.5187C66.7094 53.5572 68.0771 53.5572 68.3092 54.5187L69.0903 57.7548C69.1733 58.0984 69.4416 58.3666 69.7852 58.4496L73.0212 59.2308C73.9827 59.4628 73.9827 60.8305 73.0212 61.0626L69.7852 61.8437C69.4416 61.9267 69.1733 62.1949 69.0903 62.5386L68.3092 65.7746C68.0771 66.7361 66.7094 66.7361 66.4774 65.7746L65.6962 62.5386C65.6132 62.1949 65.345 61.9267 65.0014 61.8437L61.7653 61.0626C60.8038 60.8305 60.8038 59.4628 61.7653 59.2308L65.0014 58.4496C65.345 58.3666 65.6132 58.0984 65.6962 57.7548L66.4774 54.5187Z" fill="white"/>
<path d="M200.449 196.188C200.704 195.134 202.203 195.134 202.457 196.188L203.313 199.735C203.404 200.111 203.698 200.406 204.075 200.496L207.622 201.353C208.676 201.607 208.676 203.106 207.622 203.361L204.075 204.217C203.698 204.308 203.404 204.602 203.313 204.978L202.457 208.525C202.203 209.58 200.704 209.58 200.449 208.525L199.592 204.978C199.502 204.602 199.207 204.308 198.832 204.217L195.284 203.361C194.23 203.106 194.23 201.607 195.284 201.353L198.832 200.496C199.207 200.406 199.502 200.111 199.592 199.735L200.449 196.188Z" fill="url(#paint2_linear_74_2883)"/>
<path d="M51.6584 209.454C52.8577 209.262 53.8151 210.439 53.3818 211.574L50.4569 219.233C50.0236 220.368 48.5245 220.608 47.7586 219.665L42.5884 213.303C41.8223 212.361 42.364 210.942 43.5633 210.75L51.6584 209.454Z" fill="url(#paint3_linear_74_2883)"/>
<path d="M205.598 62.5059C205.298 61.329 206.384 60.2686 207.553 60.5972L215.447 62.8152C216.615 63.1437 216.991 64.6148 216.121 65.4632L210.255 71.1894C209.385 72.0376 207.924 71.6269 207.623 70.45L205.598 62.5059Z" fill="url(#paint4_linear_74_2883)"/>
<path d="M179.318 117.492L162.205 120.819C157.335 121.765 154.156 126.479 155.102 131.348C156.049 136.217 160.763 139.396 165.631 138.45L182.745 135.123C187.614 134.177 190.793 129.463 189.847 124.594C188.901 119.726 184.187 116.545 179.318 117.492Z" fill="url(#paint5_linear_74_2883)"/>
<path d="M186.044 126.272C186.13 124.055 184.403 122.188 182.186 122.102C179.969 122.015 178.102 123.743 178.016 125.959C177.929 128.176 179.657 130.042 181.873 130.129C184.091 130.215 185.957 128.488 186.044 126.272Z" fill="#EBEBEB"/>
<path d="M182.446 128.273C183.638 128.042 184.417 126.888 184.186 125.696C183.954 124.504 182.8 123.726 181.608 123.957C180.417 124.189 179.638 125.343 179.869 126.535C180.101 127.726 181.255 128.505 182.446 128.273Z" fill="#DBDBDB"/>
<path d="M152.184 90.4437L64.8023 107.429C59.8916 108.383 56.6845 113.139 57.6391 118.049L69.4453 178.786C70.3998 183.697 75.1545 186.904 80.0651 185.949L167.447 168.965C172.358 168.01 175.564 163.255 174.611 158.344L162.804 97.6069C161.85 92.6965 157.095 89.4892 152.184 90.4437Z" fill="url(#paint6_linear_74_2883)"/>
<path d="M150.587 62.8245L168.437 108.962C169.436 111.541 168.151 114.441 165.577 115.438L92.4041 143.747C89.8295 144.745 86.9292 143.461 85.9297 140.882L68.0805 94.7445C67.154 92.3441 68.3443 89.647 70.7453 88.7206L144.561 60.1654C146.962 59.239 149.659 60.4292 150.585 62.8303L150.587 62.8245Z" fill="url(#paint7_linear_74_2883)"/>
<path d="M154.024 107.062C154.939 109.434 153.763 112.101 151.39 113.016C149.019 113.932 146.35 112.755 145.436 110.382C144.52 108.011 145.697 105.343 148.07 104.428C150.441 103.513 153.11 104.69 154.024 107.062Z" fill="url(#paint8_linear_74_2883)"/>
<path d="M159.311 105.013C160.227 107.385 159.049 110.052 156.678 110.968C154.305 111.883 151.638 110.706 150.722 108.334C149.807 105.962 150.985 103.294 153.356 102.379C155.728 101.464 158.396 102.641 159.311 105.013Z" fill="url(#paint9_linear_74_2883)"/>
<path d="M90.1343 90.3261L78.1458 94.9638C77.1792 95.3379 76.6988 96.4248 77.0727 97.3913L79.86 104.596C80.2339 105.563 81.3207 106.043 82.2873 105.669L94.2753 101.031C95.2427 100.658 95.7228 99.5707 95.3487 98.6042L92.5616 91.3995C92.1875 90.4326 91.1005 89.9522 90.1343 90.3261Z" fill="url(#paint10_linear_74_2883)"/>
<path d="M144.7 75.9629L137.69 78.6727C136.068 79.2956 134.247 78.4918 133.62 76.8708C132.997 75.2482 133.801 73.4273 135.422 72.8003L142.431 70.0904C144.053 69.4634 145.875 70.2714 146.502 71.8924C147.125 73.5149 146.321 75.3359 144.7 75.9629Z" fill="white"/>
<path d="M83.7416 116.319L83.2517 116.938C83.2517 116.938 83.2113 116.982 83.1821 116.993C83.1237 117.015 83.0608 117.001 83.0198 116.969C82.9419 116.903 82.9316 116.802 82.9965 116.734L83.6608 115.871C83.7172 115.806 83.8312 115.792 83.8959 115.848C83.9312 115.878 83.9497 115.913 83.9616 115.957L85.5593 120.082C85.5913 120.165 85.556 120.26 85.4642 120.295C85.3807 120.327 85.2826 120.284 85.2506 120.2L83.7499 116.315L83.7416 116.319Z" fill="#F8F8F8"/>
<path d="M86.6085 119.535L87.9722 116.829C88.1329 116.499 88.1479 116.14 88.0246 115.818C87.9189 115.543 87.7089 115.308 87.4239 115.163C87.1026 115 86.7359 114.992 86.4247 115.116C86.141 115.226 85.9026 115.427 85.7541 115.714L85.6141 115.997C85.5756 116.083 85.4697 116.12 85.3956 116.076C85.309 116.037 85.2732 115.932 85.3165 115.858L85.4549 115.57C85.6425 115.211 85.9516 114.944 86.3062 114.808C86.6982 114.657 87.1522 114.655 87.5707 114.872C87.9424 115.055 88.202 115.358 88.3348 115.704C88.487 116.101 88.4822 116.562 88.2747 116.981L87.1071 119.301L89.2345 118.484C89.3163 118.448 89.4128 118.487 89.4481 118.579C89.48 118.662 89.4364 118.761 89.353 118.793L86.8492 119.763L86.8242 119.773C86.7783 119.791 86.7276 119.795 86.6898 119.772C86.6042 119.723 86.5674 119.627 86.6059 119.541L86.6085 119.535Z" fill="#F8F8F8"/>
<path d="M91.5932 113.083L90.894 114.726C91.1992 114.676 91.5217 114.705 91.8224 114.839C92.2318 115.021 92.5325 115.355 92.6829 115.747C92.8333 116.139 92.8378 116.588 92.6512 116.999C92.4691 117.409 92.1358 117.714 91.7454 117.869C91.3623 118.015 90.9139 118.02 90.5024 117.833C90.4174 117.799 90.3748 117.701 90.416 117.609C90.4488 117.519 90.5489 117.481 90.6412 117.522C90.9673 117.66 91.3161 117.66 91.6249 117.542C91.9338 117.423 92.1974 117.187 92.346 116.863C92.4918 116.533 92.4864 116.182 92.3677 115.873C92.249 115.564 92.0144 115.301 91.6883 115.163C91.3632 115.014 91.0117 115.021 90.7028 115.139C90.653 115.158 90.5969 115.15 90.5494 115.126L90.5411 115.129C90.4503 115.092 90.4103 114.988 90.453 114.899L91.1249 113.321L89.4021 113.982C89.3119 114.022 89.2138 113.978 89.1802 113.89C89.145 113.799 89.1886 113.7 89.2762 113.667L91.3786 112.86C91.4682 112.821 91.567 112.864 91.6005 112.952C91.6104 112.976 91.6114 113.005 91.6068 113.031C91.6068 113.054 91.6005 113.076 91.5923 113.093L91.5932 113.083Z" fill="#F8F8F8"/>
<path d="M96.6349 114.91L94.2029 115.853L94.182 115.861C94.1485 115.874 94.1078 115.88 94.0734 115.865C93.9828 115.842 93.9348 115.741 93.9692 115.656L95.3179 111.415L95.3224 111.403C95.3541 111.31 95.4384 111.268 95.5317 111.299C95.5643 111.311 95.5888 111.335 95.6105 111.355C95.615 111.368 95.6268 111.372 95.6286 111.377L95.6368 111.398L96.8279 114.477L97.1286 114.361C97.2201 114.327 97.3188 114.37 97.3505 114.454C97.3822 114.537 97.3388 114.635 97.2509 114.668L96.9511 114.784L97.2473 115.556C97.279 115.639 97.2355 115.737 97.1476 115.771C97.0643 115.803 96.9665 115.759 96.9339 115.676L96.6377 114.904L96.6349 114.91ZM96.5172 114.601L95.4982 111.973L94.3931 115.427L96.5199 114.61L96.5172 114.601Z" fill="#F8F8F8"/>
<path d="M102.449 113.214C102.359 113.177 102.319 113.073 102.363 112.988C102.402 112.902 102.504 112.858 102.592 112.9C102.918 113.039 103.268 113.039 103.576 112.92C103.885 112.802 104.14 112.57 104.287 112.241C104.434 111.911 104.429 111.563 104.311 111.255C104.191 110.942 103.956 110.679 103.632 110.534C103.311 110.395 102.957 110.397 102.648 110.515C102.335 110.635 102.076 110.869 101.929 111.198C101.89 111.284 101.786 111.324 101.704 111.284C101.678 111.28 101.658 111.264 101.648 111.248L101.644 111.24C101.644 111.24 101.631 111.231 101.628 111.223C101.615 111.213 101.607 111.192 101.6 111.176C101.597 111.168 101.596 111.153 101.591 111.14L101.108 109.245C101.089 109.195 101.098 109.143 101.126 109.104C101.141 109.069 101.174 109.043 101.215 109.026L103.31 108.223C103.399 108.183 103.497 108.227 103.532 108.314C103.568 108.41 103.523 108.505 103.436 108.538L101.475 109.291L101.831 110.695C102.008 110.468 102.244 110.297 102.515 110.193C102.908 110.043 103.344 110.033 103.761 110.222C104.179 110.401 104.468 110.73 104.622 111.131C104.769 111.515 104.785 111.968 104.594 112.381C104.41 112.786 104.073 113.093 103.686 113.242C103.293 113.392 102.845 113.397 102.436 113.215L102.449 113.214Z" fill="#F8F8F8"/>
<path d="M105.542 108.491C105.641 107.826 106.003 107.223 106.738 106.907C106.819 106.867 106.917 106.91 106.957 106.991C106.992 107.082 106.948 107.18 106.867 107.216C106.246 107.484 105.975 107.961 105.87 108.537C105.817 108.859 105.839 109.215 105.899 109.56C106.052 109.147 106.371 108.794 106.814 108.625C107.644 108.306 108.562 108.715 108.876 109.533C109.191 110.354 108.786 111.27 107.962 111.591C107.158 111.9 106.259 111.518 105.924 110.733C105.875 110.641 105.838 110.545 105.798 110.441C105.573 109.843 105.443 109.141 105.546 108.489L105.542 108.491ZM106.227 110.587C106.24 110.62 106.258 110.642 106.272 110.666C106.28 110.686 106.284 110.699 106.281 110.715C106.58 111.256 107.245 111.507 107.834 111.282C108.489 111.031 108.811 110.299 108.564 109.657C108.318 109.014 107.586 108.692 106.931 108.944C106.289 109.19 105.966 109.921 106.214 110.564L106.223 110.589L106.227 110.587Z" fill="#F8F8F8"/>
<path d="M111 110.168L111.136 105.584L108.962 106.418C108.88 106.454 108.784 106.415 108.752 106.331C108.72 106.248 108.764 106.149 108.847 106.118L111.225 105.205C111.253 105.179 111.283 105.168 111.321 105.168C111.366 105.175 111.414 105.199 111.441 105.232C111.457 105.25 111.467 105.261 111.473 105.277C111.486 105.311 111.486 105.339 111.479 105.37L111.339 110.177C111.336 110.245 111.292 110.305 111.234 110.327C111.208 110.337 111.196 110.341 111.166 110.339C111.074 110.336 111 110.255 110.996 110.169L111 110.168Z" fill="#F8F8F8"/>
<path d="M113.782 104.174C114.295 103.977 114.88 104.231 115.078 104.744C115.197 105.057 115.148 105.387 114.986 105.65C115.602 105.662 116.179 106.043 116.412 106.649C116.723 107.457 116.326 108.357 115.518 108.671C114.713 108.981 113.81 108.585 113.496 107.778C113.263 107.173 113.433 106.505 113.873 106.082C113.582 105.997 113.328 105.784 113.208 105.471C113.011 104.958 113.258 104.38 113.78 104.179L113.782 104.174ZM115.402 108.357C116.044 108.111 116.351 107.399 116.108 106.765C115.866 106.136 115.159 105.813 114.515 106.061C113.881 106.303 113.569 107.022 113.811 107.652C114.055 108.29 114.768 108.601 115.402 108.357ZM114.389 105.741C114.731 105.6 114.906 105.207 114.774 104.861C114.64 104.515 114.251 104.348 113.905 104.481C113.559 104.614 113.39 104.999 113.524 105.345C113.657 105.691 114.044 105.868 114.392 105.739L114.389 105.741Z" fill="#F8F8F8"/>
<path d="M121.766 101.086C122.538 100.79 123.381 101.118 123.748 101.823C123.761 101.833 123.764 101.841 123.773 101.852C123.828 101.97 123.882 102.098 123.933 102.231C124.162 102.828 124.292 103.539 124.196 104.188C124.092 104.841 123.727 105.459 123 105.772L122.992 105.775C122.9 105.811 122.805 105.775 122.773 105.692C122.738 105.6 122.774 105.509 122.863 105.466C123.474 105.197 123.763 104.718 123.859 104.145C123.909 103.815 123.899 103.465 123.831 103.122C123.677 103.535 123.353 103.875 122.903 104.048C122.085 104.361 121.168 103.967 120.845 103.139C120.532 102.322 120.94 101.403 121.758 101.09L121.766 101.086ZM123.512 102.106C123.265 101.464 122.541 101.148 121.886 101.399C121.244 101.646 120.92 102.373 121.165 103.012C121.417 103.667 122.143 103.976 122.785 103.729C123.44 103.478 123.763 102.761 123.507 102.107L123.512 102.106Z" fill="#F8F8F8"/>
<path d="M125.268 102.316C125.036 101.712 124.975 101.103 125.089 100.576C125.21 100.071 125.496 99.645 125.951 99.4702C126.406 99.2954 126.908 99.4186 127.335 99.7094C127.766 100.023 128.145 100.509 128.381 101.112C128.613 101.717 128.662 102.33 128.549 102.847C128.429 103.357 128.144 103.787 127.689 103.962C127.235 104.136 126.733 104.013 126.303 103.714C125.87 103.411 125.499 102.918 125.266 102.313L125.268 102.316ZM125.581 102.197C125.793 102.747 126.133 103.186 126.5 103.442C126.864 103.695 127.248 103.773 127.57 103.649C127.89 103.525 128.114 103.21 128.221 102.777C128.317 102.343 128.281 101.787 128.07 101.237C127.859 100.686 127.509 100.25 127.147 99.992C126.774 99.7293 126.399 99.6622 126.077 99.7854C125.755 99.9086 125.519 100.215 125.426 100.658C125.33 101.092 125.374 101.644 125.587 102.199L125.581 102.197Z" fill="#F8F8F8"/>
<path d="M129.764 98.5171L129.275 99.1367C129.275 99.1367 129.234 99.1802 129.205 99.1919C129.146 99.2146 129.083 99.2001 129.042 99.1684C128.964 99.1023 128.954 99.0008 129.019 98.9329L129.683 98.0697C129.74 98.0053 129.853 97.99 129.919 98.047C129.954 98.076 129.972 98.1122 129.984 98.1557L131.582 102.28C131.613 102.364 131.578 102.458 131.486 102.494C131.403 102.526 131.305 102.482 131.273 102.398L129.773 98.5144L129.764 98.5171Z" fill="#F8F8F8"/>
<path d="M132.63 101.731L133.993 99.0254C134.154 98.6957 134.169 98.3352 134.045 98.0146C133.939 97.7392 133.73 97.5037 133.445 97.3597C133.123 97.1957 132.756 97.1885 132.446 97.3126C132.162 97.4213 131.925 97.6269 131.775 97.9095L131.635 98.193C131.596 98.28 131.49 98.3153 131.417 98.2718C131.33 98.2338 131.294 98.1278 131.337 98.0535L131.476 97.7664C131.663 97.4068 131.972 97.1396 132.325 96.9992C132.717 96.8488 133.171 96.847 133.59 97.0644C133.961 97.2473 134.221 97.5499 134.354 97.8959C134.506 98.2917 134.501 98.7537 134.294 99.1731L133.126 101.493L135.254 100.676C135.335 100.64 135.434 100.683 135.467 100.771C135.499 100.854 135.456 100.952 135.372 100.985L132.869 101.955L132.843 101.965C132.797 101.982 132.746 101.987 132.709 101.964C132.623 101.915 132.586 101.819 132.625 101.733L132.63 101.731Z" fill="#F8F8F8"/>
<path d="M141.461 93.7925L140.761 95.4356C141.067 95.3849 141.39 95.4139 141.689 95.548C142.1 95.73 142.4 96.0643 142.551 96.4565C142.701 96.8487 142.706 97.2971 142.519 97.7083C142.336 98.1186 142.004 98.423 141.617 98.576C141.234 98.7237 140.781 98.73 140.37 98.5434C140.285 98.509 140.242 98.4103 140.284 98.3179C140.318 98.2327 140.416 98.1902 140.508 98.2309C140.834 98.3695 141.184 98.3695 141.493 98.2509C141.801 98.1322 142.065 97.8967 142.213 97.5724C142.36 97.2436 142.353 96.8913 142.236 96.5824C142.117 96.2744 141.881 96.0099 141.555 95.8722C141.231 95.7237 140.879 95.73 140.57 95.8487C140.52 95.8677 140.465 95.8605 140.417 95.8351L140.409 95.8387C140.318 95.8016 140.277 95.6974 140.321 95.6087L140.992 94.0307L139.269 94.692C139.179 94.7309 139.082 94.6875 139.047 94.5996C139.013 94.5081 139.056 94.4094 139.143 94.3759L141.246 93.5688C141.336 93.5298 141.434 93.5733 141.467 93.6612C141.477 93.6865 141.478 93.7146 141.474 93.74C141.474 93.7644 141.468 93.7853 141.46 93.8025L141.461 93.7925Z" fill="#F8F8F8"/>
<path d="M146.503 95.6195L144.067 96.5552L144.06 96.5624L144.048 96.567C144.014 96.5797 143.976 96.5905 143.939 96.5706C143.849 96.5479 143.801 96.4465 143.835 96.3614L145.184 92.1204L145.188 92.1086C145.22 92.0153 145.304 91.9737 145.398 92.0054C145.43 92.0162 145.455 92.0407 145.476 92.0606C145.481 92.0733 145.489 92.0797 145.495 92.0824L145.503 92.1032L146.694 95.1829L146.995 95.0679C147.086 95.0326 147.185 95.076 147.216 95.1594C147.248 95.2427 147.205 95.3414 147.117 95.3749L146.817 95.49L147.113 96.2617C147.145 96.3451 147.101 96.4429 147.014 96.4764C146.93 96.509 146.832 96.4655 146.8 96.3813L146.504 95.6095L146.503 95.6195ZM146.384 95.3115L145.366 92.682L144.26 96.1358L146.388 95.3197L146.384 95.3115Z" fill="#F8F8F8"/>
<path d="M148.47 95.4095C148.38 95.3724 148.34 95.2682 148.384 95.1839C148.422 95.0979 148.527 95.0571 148.613 95.0961C148.939 95.2338 149.288 95.2338 149.597 95.116C149.906 94.9974 150.161 94.7655 150.308 94.4358C150.455 94.107 150.45 93.7591 150.332 93.4503C150.211 93.1378 149.977 92.8742 149.653 92.7301C149.33 92.5861 148.977 92.5916 148.669 92.7102C148.356 92.8307 148.097 93.0644 147.95 93.3932C147.911 93.4801 147.809 93.5236 147.725 93.4792C147.699 93.4747 147.679 93.4593 147.669 93.4439L147.665 93.4358C147.665 93.4358 147.652 93.4267 147.649 93.4176C147.635 93.4086 147.628 93.3878 147.621 93.3714C147.618 93.3624 147.617 93.3488 147.612 93.3361L147.129 91.4403C147.11 91.3896 147.119 91.3388 147.147 91.299C147.162 91.2646 147.195 91.2374 147.236 91.222L149.33 90.4179C149.42 90.3785 149.518 90.4222 149.552 90.5098C149.589 90.606 149.544 90.6993 149.456 90.7329L147.496 91.4856L147.852 92.8896C148.031 92.6686 148.265 92.4919 148.536 92.3887C148.928 92.2374 149.364 92.2283 149.782 92.4176C150.2 92.597 150.489 92.9258 150.643 93.3262C150.79 93.7102 150.806 94.1631 150.615 94.5762C150.431 94.982 150.094 95.2881 149.707 95.4376C149.314 95.5879 148.866 95.5925 148.457 95.4104L148.47 95.4095Z" fill="#F8F8F8"/>
<path d="M151.563 90.6866C151.662 90.0214 152.022 89.4141 152.759 89.1024C152.84 89.0621 152.938 89.1058 152.977 89.186C153.013 89.2778 152.969 89.3759 152.888 89.4121C152.269 89.683 151.996 90.1564 151.891 90.7328C151.838 91.0544 151.86 91.4095 151.92 91.7555C152.073 91.3424 152.392 90.9901 152.834 90.8207C153.665 90.5017 154.583 90.9104 154.897 91.7274C155.212 92.5499 154.807 93.4656 153.983 93.7872C153.178 94.0961 152.28 93.7138 151.945 92.9276C151.895 92.837 151.859 92.741 151.819 92.6368C151.593 92.0381 151.463 91.337 151.567 90.6848L151.563 90.6866ZM152.248 92.7827C152.261 92.8162 152.279 92.8379 152.293 92.8615C152.301 92.8823 152.305 92.895 152.302 92.9104C152.601 93.4511 153.266 93.7029 153.854 93.4774C154.509 93.2256 154.832 92.4946 154.585 91.8524C154.339 91.2093 153.607 90.8877 152.952 91.1386C152.31 91.3859 151.987 92.1169 152.234 92.7591L152.244 92.7845L152.248 92.7827Z" fill="#F8F8F8"/>
<path d="M128.036 112.685L88.854 127.843L89.5988 129.768L128.781 114.61L128.036 112.685Z" fill="url(#paint11_linear_74_2883)"/>
<path d="M118.249 121.39L90.509 132.122L91.2535 134.048L118.994 123.316L118.249 121.39Z" fill="url(#paint12_linear_74_2883)"/>
<path d="M128.828 75.3523L111.214 82.1666C110.682 82.3723 110.418 82.9699 110.623 83.5016C110.829 84.0332 111.427 84.2975 111.958 84.0918L129.572 77.2775C130.104 77.0718 130.368 76.4741 130.162 75.9425C129.957 75.4109 129.359 75.1466 128.828 75.3523Z" fill="#3B3B3B"/>
<path d="M161.106 124.534L69.3008 142.38L76.445 179.134L168.251 161.289L161.106 124.534Z" fill="url(#paint13_linear_74_2883)"/>
<path opacity="0.2" d="M161.106 124.534L69.3008 142.38L76.445 179.134L168.251 161.289L161.106 124.534Z" fill="black"/>
<path d="M169.586 183.286L79.1364 187.863C74.6328 188.091 70.6475 184.972 69.7871 180.545L56.7668 113.561C56.4595 111.981 58.0837 110.725 59.5365 111.419C61.2224 112.225 63.0958 112.566 64.963 112.408L146.217 105.458C150.83 105.063 154.997 108.21 155.88 112.754L169.59 183.281C169.59 183.282 169.588 183.285 169.586 183.286Z" fill="url(#paint14_linear_74_2883)"/>
<path d="M150.374 150.298C152.479 149.889 153.808 147.613 153.342 145.216C152.876 142.818 150.792 141.206 148.687 141.614C146.582 142.023 145.253 144.299 145.719 146.697C146.186 149.095 148.27 150.707 150.374 150.298Z" fill="#EBEBEB"/>
<path d="M151.303 145.612C151.519 146.726 150.901 147.784 149.923 147.974C148.945 148.164 147.976 147.415 147.759 146.301C147.543 145.187 148.16 144.129 149.139 143.939C150.117 143.749 151.086 144.498 151.303 145.612Z" fill="#DBDBDB"/>
</g>
<defs>
<filter id="filter0_f_74_2883" x="-5.08691" y="-5.08691" width="260.174" height="260.174" filterUnits="userSpaceOnUse" color-interpolation-filters="sRGB">
<feFlood flood-opacity="0" result="BackgroundImageFix"/>
<feBlend mode="normal" in="SourceGraphic" in2="BackgroundImageFix" result="shape"/>
<feGaussianBlur stdDeviation="27" result="effect1_foregroundBlur_74_2883"/>
</filter>
<linearGradient id="paint0_linear_74_2883" x1="49.8943" y1="20.8333" x2="208.898" y2="53.932" gradientUnits="userSpaceOnUse">
<stop stop-color="#A259FF"/>
<stop offset="1" stop-color="#3B3B3B"/>
</linearGradient>
<linearGradient id="paint1_linear_74_2883" x1="73.5508" y1="48.9131" x2="220.705" y2="77.2927" gradientUnits="userSpaceOnUse">
<stop stop-color="#A259FF" stop-opacity="0"/>
<stop offset="1" stop-color="#FF6250"/>
</linearGradient>
<linearGradient id="paint2_linear_74_2883" x1="204.428" y1="198.491" x2="217.771" y2="208.97" gradientUnits="userSpaceOnUse">
<stop stop-color="#A259FF"/>
<stop offset="1" stop-color="#377DF7"/>
</linearGradient>
<linearGradient id="paint3_linear_74_2883" x1="52.8952" y1="213.338" x2="52.4494" y2="226.613" gradientUnits="userSpaceOnUse">
<stop stop-color="#A259FF"/>
<stop offset="1" stop-color="#377DF7"/>
</linearGradient>
<linearGradient id="paint4_linear_74_2883" x1="209.354" y1="60.9218" x2="222.615" y2="60.1613" gradientUnits="userSpaceOnUse">
<stop stop-color="#A259FF"/>
<stop offset="1" stop-color="#377DF7"/>
</linearGradient>
<linearGradient id="paint5_linear_74_2883" x1="159.014" y1="121.438" x2="191.714" y2="127.092" gradientUnits="userSpaceOnUse">
<stop stop-color="#A259FF"/>
<stop offset="1" stop-color="#3B3B3B"/>
</linearGradient>
<linearGradient id="paint6_linear_74_2883" x1="137.498" y1="203.71" x2="102.173" y2="134.34" gradientUnits="userSpaceOnUse">
<stop stop-color="#A259FF"/>
<stop offset="1" stop-color="#3B3B3B"/>
</linearGradient>
<linearGradient id="paint7_linear_74_2883" x1="79.7249" y1="85.0535" x2="164.798" y2="77.7054" gradientUnits="userSpaceOnUse">
<stop stop-color="#A259FF"/>
<stop offset="1" stop-color="#FF6250"/>
</linearGradient>
<linearGradient id="paint8_linear_74_2883" x1="145.173" y1="105.54" x2="154.102" y2="103.952" gradientUnits="userSpaceOnUse">
<stop stop-color="#A259FF"/>
<stop offset="1" stop-color="#FF6250"/>
</linearGradient>
<linearGradient id="paint9_linear_74_2883" x1="150.46" y1="103.491" x2="159.389" y2="101.903" gradientUnits="userSpaceOnUse">
<stop stop-color="#A259FF"/>
<stop offset="1" stop-color="#3B3B3B"/>
</linearGradient>
<linearGradient id="paint10_linear_74_2883" x1="78.9033" y1="94.6712" x2="94.8722" y2="93.1169" gradientUnits="userSpaceOnUse">
<stop stop-color="#A259FF"/>
<stop offset="1" stop-color="#3B3B3B"/>
</linearGradient>
<linearGradient id="paint11_linear_74_2883" x1="95.1976" y1="125.389" x2="101.23" y2="133.864" gradientUnits="userSpaceOnUse">
<stop stop-color="#A259FF"/>
<stop offset="1" stop-color="#FF6250"/>
</linearGradient>
<linearGradient id="paint12_linear_74_2883" x1="94.9999" y1="130.385" x2="101.619" y2="138.015" gradientUnits="userSpaceOnUse">
<stop stop-color="#A259FF"/>
<stop offset="1" stop-color="#FF6250"/>
</linearGradient>
<linearGradient id="paint13_linear_74_2883" x1="84.1645" y1="139.491" x2="165.898" y2="160.966" gradientUnits="userSpaceOnUse">
<stop stop-color="#A259FF"/>
<stop offset="1" stop-color="#3B3B3B"/>
</linearGradient>
<linearGradient id="paint14_linear_74_2883" x1="145.195" y1="160.975" x2="3.60611" y2="93.0225" gradientUnits="userSpaceOnUse">
<stop stop-color="#A259FF"/>
<stop offset="0.666667" stop-color="white"/>
</linearGradient>
<clipPath id="clip0_74_2883">
<rect width="250" height="250" fill="white"/>
</clipPath>
</defs>
</svg>
